<svg width="21" height="21" viewBox="0 0 21 21" fill="none" xmlns="http://www.w3.org/2000/svg">
<g clip-path="url(#clip0_11_213)">
<path d="M17.9277 9.10222C17.6418 9.10222 17.4063 8.93404 17.4063 8.71541V5.77232C17.3895 -0.769761 3.44763 -0.70249 3.46445 5.77232V8.71541C3.46445 8.91722 3.229 9.10222 2.9431 9.10222C2.6572 9.10222 2.42175 8.93404 2.42175 8.71541V5.77232C2.42175 -1.947 18.3481 -1.93018 18.3481 5.77232V8.71541C18.3817 8.91722 18.1463 9.10222 17.9108 9.10222H17.9277Z" fill="#7A7B7B"/>
<path d="M4.22124 16.2161H3.229C1.4295 16.2161 0 14.7866 0 12.9871V11.4735C0 9.67401 1.4295 8.24451 3.229 8.24451H4.22124C4.62486 8.24451 4.97803 8.56404 4.97803 9.0013C4.97803 9.2872 4.74259 9.52265 4.45669 9.52265C4.25487 9.52265 4.10352 9.40493 4.01943 9.2872H3.229C2.0013 9.2872 0.992243 10.2794 0.992243 11.524V13.0375C0.992243 14.2652 1.98449 15.2743 3.229 15.2743H4.01943C4.10352 15.1229 4.25487 15.0389 4.45669 15.0389C4.74259 15.0389 4.97803 15.2743 4.97803 15.5602C4.97803 15.8797 4.62486 16.2329 4.22124 16.2329V16.2161Z" fill="#7A7B7B"/>
<path d="M4.97803 15.6948H5.97027V8.73224H4.97803V15.6948ZM6.45798 16.687H4.4735C4.1876 16.687 3.95215 16.4516 3.95215 16.1657V8.19408C3.95215 7.90818 4.1876 7.67273 4.4735 7.67273H6.45798C6.74388 7.67273 6.97933 7.90818 6.97933 8.19408V16.1657C6.97933 16.4516 6.74388 16.687 6.45798 16.687Z" fill="#7A7B7B"/>
<path d="M17.7258 16.2161H16.7336C16.33 16.2161 15.9768 15.8966 15.9768 15.4593C15.9768 15.1734 16.2123 14.938 16.4982 14.938C16.7 14.938 16.8513 15.0557 16.9354 15.1734H17.7258C18.9535 15.1734 19.9626 14.1812 19.9626 12.9367V11.4231C19.9626 10.1954 18.9704 9.18631 17.7258 9.18631H16.9354C16.8513 9.33767 16.7 9.42176 16.4982 9.42176C16.2123 9.42176 15.9768 9.18631 15.9768 8.90041C15.9768 8.49679 16.2963 8.14362 16.7336 8.14362H17.7258C19.5253 8.14362 20.9548 9.57312 20.9548 11.3726V12.8862C20.9885 14.7193 19.5253 16.1993 17.7258 16.1993V16.2161Z" fill="#7A7B7B"/>
<path d="M14.9341 15.6948H15.9263V8.73224H14.9341V15.6948ZM16.414 16.687H14.4296C14.1436 16.687 13.9082 16.4516 13.9082 16.1657V8.19408C13.9082 7.90818 14.1436 7.67273 14.4296 7.67273H16.414C16.6999 7.67273 16.9354 7.90818 16.9354 8.19408V16.1657C16.9354 16.4516 16.6999 16.687 16.414 16.687Z" fill="#7A7B7B"/>
<path d="M16.969 19.6805H9.95604C9.67014 19.6805 9.43469 19.4451 9.43469 19.1592C9.43469 18.8733 9.67014 18.6378 9.95604 18.6378H16.969C17.4904 18.6378 17.9276 18.2006 17.9276 17.6792V15.6947C17.9276 15.4088 18.1631 15.1734 18.449 15.1734C18.7349 15.1734 18.9703 15.4088 18.9703 15.6947V17.7297C18.9367 18.806 18.0622 19.6805 16.9858 19.6805H16.969Z" fill="#7A7B7B"/>
<path d="M9.19925 18.6883C9.08152 18.6883 8.9638 18.806 8.9638 18.9237V19.4451C8.9638 19.5628 9.08152 19.6805 9.19925 19.6805C9.31697 19.6805 9.4347 19.5628 9.4347 19.4451V18.9237C9.4347 18.8396 9.40106 18.7724 9.35061 18.7724C9.31697 18.7387 9.23288 18.6883 9.19925 18.6883ZM9.19925 20.6728C8.52654 20.6728 7.97156 20.1178 7.97156 19.4451V18.9237C7.97156 18.251 8.52654 17.696 9.19925 17.696C9.51878 17.696 9.83832 17.8138 10.0738 18.0492C10.3092 18.2847 10.4269 18.6042 10.4269 18.9237V19.4451C10.4269 20.1178 9.87196 20.6728 9.19925 20.6728Z" fill="#7A7B7B"/>
</g>
<defs>
<clipPath id="clip0_11_213">
<rect width="20.9548" height="20.6767" fill="white"/>
</clipPath>
</defs>
</svg>
