<svg width="21" height="19" viewBox="0 0 21 19" fill="none" xmlns="http://www.w3.org/2000/svg">
<g clip-path="url(#clip0_11_239)">
<path fill-rule="evenodd" clip-rule="evenodd" d="M2.4409 4.49704H18.4838C19.578 4.49704 20.4534 5.38925 20.4534 6.46663V15.9947C20.4534 17.0889 19.5612 17.9643 18.4838 17.9643H2.4409C1.34669 17.9643 0.471313 17.0721 0.471313 15.9947V6.46663C0.471313 5.37241 1.36352 4.49704 2.4409 4.49704V4.49704Z" stroke="#7D7D7D" stroke-width="0.942709" stroke-miterlimit="22.9256"/>
<path fill-rule="evenodd" clip-rule="evenodd" d="M20.4702 9.47994H16.3121C15.3526 9.47994 14.5614 10.2711 14.5614 11.2307C14.5614 12.2071 15.3526 12.9814 16.3121 12.9814H20.4702V9.4631V9.47994Z" stroke="#7D7D7D" stroke-width="0.942709" stroke-miterlimit="22.9256"/>
<path fill-rule="evenodd" clip-rule="evenodd" d="M16.1776 10.8098C16.4132 10.8098 16.5984 10.995 16.5984 11.2307C16.5984 11.4664 16.4132 11.6515 16.1776 11.6515C15.9419 11.6515 15.7567 11.4664 15.7567 11.2307C15.7567 10.995 15.9419 10.8098 16.1776 10.8098Z" fill="#7D7D7D" stroke="#7D7D7D" stroke-width="0.942709" stroke-miterlimit="22.9256"/>
<path d="M5.16797 4.49705L12.878 0.608378C13.5345 0.271696 14.3257 0.557876 14.6456 1.24807L16.1606 4.49705" stroke="#7D7D7D" stroke-width="0.942709" stroke-miterlimit="22.9256"/>
</g>
<defs>
<clipPath id="clip0_11_239">
<rect width="20.9416" height="18.438" fill="white"/>
</clipPath>
</defs>
</svg>
